<svg width="20" height="20" viewBox="0 0 20 20" fill="none" xmlns="http://www.w3.org/2000/svg">
<g clip-path="url(#clip0_282_3489)">
<mask id="mask0_282_3489" style="mask-type:luminance" maskUnits="userSpaceOnUse" x="0" y="0" width="20" height="20">
<path d="M19.1239 0.5H0.561935V19.0619H19.1239V0.5Z" fill="white"/>
</mask>
<g mask="url(#mask0_282_3489)">
<path d="M19.1239 9.83741C19.1239 14.4694 15.7255 18.3094 11.2892 19.0062V12.5382H13.4462L13.8569 9.86217H11.2892V8.12587C11.2892 7.39344 11.6481 6.68036 12.7973 6.68036H13.9644V4.40188C13.9644 4.40188 12.9049 4.2209 11.8924 4.2209C9.77794 4.2209 8.39663 5.50244 8.39663 7.82192V9.86141H6.04623V12.5374H8.39663V19.0055C3.96109 18.3079 0.561935 14.4686 0.561935 9.83741C0.561935 4.712 4.71749 0.556458 9.8429 0.556458C14.9683 0.556458 19.1239 4.71124 19.1239 9.83741Z" fill="white"/>
</g>
</g>
<defs>
<clipPath id="clip0_282_3489">
<rect width="18.5619" height="18.5619" fill="white" transform="translate(0.561935 0.5)"/>
</clipPath>
</defs>
</svg>
