<svg width="40" height="41" viewBox="0 0 40 41" fill="none" xmlns="http://www.w3.org/2000/svg">
<rect y="0.5" width="40" height="40" rx="20" fill="#424242"/>
<path d="M24.5841 14.5574C26.9187 14.5574 27.5461 17.7444 26.5423 19.8422C26.0933 20.7806 25.3165 21.6051 24.6946 22.4357C24.0982 23.2322 23.8 23.6304 23.408 23.9091C22.5339 24.5304 21.522 24.5 20.4897 24.5H19.4583C16.9193 24.5 15.6498 24.5 14.8109 23.7904C13.9721 23.0809 13.7668 21.8596 13.3561 19.417C13.1303 18.074 12.9713 16.7322 13.0043 15.4313C13.0648 13.049 14.8888 11.0427 17.3524 10.6487C18.526 10.4611 19.9711 10.4425 21.1454 10.6418C23.2422 10.9977 24.7207 12.8042 24.5741 14.8311C24.4847 16.0672 23.9831 17.3397 23.67 18.5344" stroke="white" stroke-width="1.5" stroke-linecap="round"/>
<path d="M15.0039 24V26.5C15.0039 28.3856 15.0039 29.3284 15.5897 29.9142C16.1755 30.5 17.1183 30.5 19.0039 30.5H20.0039C21.8895 30.5 22.8323 30.5 23.4181 29.9142C24.0039 29.3284 24.0039 28.3856 24.0039 26.5V23.5" stroke="white" stroke-width="1.5" stroke-linecap="round"/>
<path d="M15.0039 27.5H18.0039" stroke="white" stroke-width="1.5" stroke-linecap="round"/>
</svg>
