<svg width="40" height="41" viewBox="0 0 40 41" fill="none" xmlns="http://www.w3.org/2000/svg">
<rect y="0.5" width="40" height="40" rx="20" fill="#424242"/>
<path d="M16 29.5C16 28.0858 16 27.3787 16.4393 26.9393C16.8787 26.5 17.5858 26.5 19 26.5H21C22.4142 26.5 23.1213 26.5 23.5607 26.9393C24 27.3787 24 28.0858 24 29.5V30.5H16V29.5Z" stroke="white" stroke-width="1.5" stroke-linecap="round" stroke-linejoin="round"/>
<path d="M20 21.5V26.5" stroke="white" stroke-width="1.5" stroke-linecap="round" stroke-linejoin="round"/>
<path d="M14 30.5H26" stroke="white" stroke-width="1.5" stroke-linecap="round" stroke-linejoin="round"/>
<path d="M21.0366 11.3665L22.0925 13.4957C22.2364 13.7921 22.6204 14.0764 22.9444 14.1309L24.8582 14.4515C26.082 14.6571 26.37 15.5524 25.4881 16.4355L24.0003 17.9356C23.7483 18.1897 23.6103 18.6796 23.6883 19.0305L24.1142 20.8875C24.4502 22.3574 23.6763 22.926 22.3864 22.1578L20.5926 21.0871C20.2687 20.8935 19.7347 20.8935 19.4048 21.0871L17.611 22.1578C16.3271 22.926 15.5472 22.3513 15.8832 20.8875L16.3091 19.0305C16.3871 18.6796 16.2491 18.1897 15.9971 17.9356L14.5093 16.4355C13.6334 15.5524 13.9154 14.6571 15.1392 14.4515L17.053 14.1309C17.371 14.0764 17.7549 13.7921 17.8989 13.4957L18.9548 11.3665C19.5307 10.2112 20.4666 10.2112 21.0366 11.3665Z" stroke="white" stroke-width="1.5" stroke-linecap="round" stroke-linejoin="round"/>
</svg>
