<svg width="40" height="41" viewBox="0 0 40 41" fill="none" xmlns="http://www.w3.org/2000/svg">
<rect y="0.5" width="40" height="40" rx="20" fill="#424242"/>
<path d="M26 11.5V16.5M14 11.5V16.5" stroke="white" stroke-width="1.5" stroke-linecap="round" stroke-linejoin="round"/>
<path d="M28.5 12.5V14M28.5 14V15.5M28.5 14H30M11.5 12.5V14M11.5 14V15.5M11.5 14H10" stroke="white" stroke-width="1.5" stroke-linecap="round" stroke-linejoin="round"/>
<path d="M26 14H14" stroke="white" stroke-width="1.5" stroke-linecap="round" stroke-linejoin="round"/>
<path d="M15.2765 27.5H24.7235C25.961 27.5 26.5797 27.5 26.8356 27.1974C27.4163 26.5107 26.3038 25.6031 25.8979 25.1456C25.4405 24.6302 25.1059 24.5 24.4299 24.5H15.5701C14.8941 24.5 14.5595 24.6302 14.1021 25.1456C13.6962 25.6031 12.5837 26.5107 13.1644 27.1974C13.4203 27.5 14.039 27.5 15.2765 27.5Z" stroke="white" stroke-width="1.5" stroke-linecap="round" stroke-linejoin="round"/>
<path d="M17 16.5V24.5M23 16.5V24.5" stroke="white" stroke-width="1.5" stroke-linecap="round" stroke-linejoin="round"/>
<path d="M24 27.5V29.5M16 27.5V29.5" stroke="white" stroke-width="1.5" stroke-linecap="round" stroke-linejoin="round"/>
</svg>
