<svg width="40" height="41" viewBox="0 0 40 41" fill="none" xmlns="http://www.w3.org/2000/svg">
<rect y="0.5" width="40" height="40" rx="20" fill="#424242"/>
<path d="M18.5054 23.5102L25.14 18.9989C25.3273 18.8598 25.4944 18.6955 25.6363 18.5112C26.1217 17.8804 26.1121 17.0055 25.8044 16.2737C25.1198 14.6451 23.4952 13.5 21.6 13.5C20.6644 13.5 19.7948 13.7791 19.0717 14.2576L11.9922 19.2567" stroke="white" stroke-width="1.5" stroke-linecap="round" stroke-linejoin="round"/>
<path d="M13.9951 22.0066C13.9951 22.7026 14.3637 24.0859 16.0358 24.4655C17.0418 24.6939 19.9726 23.7305 18.5386 20.9385C17.1047 18.1466 13.6515 18.132 12.2468 19.0675C11.3884 19.5889 9.72132 21.2163 10.0374 23.3796C10.1496 24.6903 11.1816 27.3496 14.4124 27.5017H24.3037C25.2255 27.4286 25.416 27.2949 26.1181 26.7562C27.0626 25.908 28.6401 24.3485 29.5565 23.3218C29.7545 23.1 29.9682 22.8717 29.9956 22.5757C30.1413 20.999 27.7488 21.6819 26.0157 21.494" stroke="white" stroke-width="1.5" stroke-linecap="round" stroke-linejoin="round"/>
</svg>
