<svg width="19" height="20" viewBox="0 0 19 20" fill="none" xmlns="http://www.w3.org/2000/svg">
<g clip-path="url(#clip0_282_3495)">
<mask id="mask0_282_3495" style="mask-type:luminance" maskUnits="userSpaceOnUse" x="0" y="0" width="19" height="20">
<path d="M18.6858 0.5H0.123871V19.0619H18.6858V0.5Z" fill="white"/>
</mask>
<g mask="url(#mask0_282_3495)">
<path d="M9.40484 2.17212C11.8829 2.17212 12.1768 2.1814 13.1551 2.22626C14.1667 2.27266 15.2085 2.50314 15.9456 3.24021C16.6896 3.98423 16.9131 5.01595 16.9595 6.03069C17.0044 7.00904 17.0137 7.30295 17.0137 9.78097C17.0137 12.259 17.0044 12.5529 16.9595 13.5312C16.9139 14.5375 16.678 15.5893 15.9456 16.3217C15.2016 17.0658 14.1706 17.2893 13.1551 17.3357C12.1768 17.3805 11.8829 17.3898 9.40484 17.3898C6.92682 17.3898 6.63291 17.3805 5.65457 17.3357C4.65606 17.29 3.59031 17.0487 2.86408 16.3217C2.12392 15.5816 1.89654 14.5398 1.85013 13.5312C1.80527 12.5529 1.79599 12.259 1.79599 9.78097C1.79599 7.30295 1.80527 7.00904 1.85013 6.03069C1.89576 5.02835 2.13397 3.97031 2.86408 3.24021C3.60655 2.49773 4.64214 2.27266 5.65457 2.22626C6.63291 2.1814 6.92682 2.17212 9.40484 2.17212ZM9.40484 0.5C6.88429 0.5 6.56794 0.510828 5.578 0.555686C4.14329 0.621426 2.71867 1.02051 1.68153 2.05765C0.640513 3.09867 0.245297 4.52022 0.179557 5.95413C0.134699 6.94407 0.123871 7.26042 0.123871 9.78097C0.123871 12.3015 0.134699 12.6179 0.179557 13.6078C0.245297 15.041 0.645925 16.4695 1.68153 17.5043C2.72177 18.5445 4.14561 18.9405 5.578 19.0062C6.56794 19.0511 6.88429 19.0619 9.40484 19.0619C11.9254 19.0619 12.2417 19.0511 13.2317 19.0062C14.6656 18.9405 16.0918 18.5406 17.1282 17.5043C18.1699 16.4625 18.5644 15.0417 18.6301 13.6078C18.675 12.6179 18.6858 12.3015 18.6858 9.78097C18.6858 7.26042 18.675 6.94407 18.6301 5.95413C18.5644 4.51942 18.1645 3.09403 17.1282 2.05765C16.0895 1.01896 14.6617 0.620653 13.2317 0.555686C12.2417 0.510828 11.9254 0.5 9.40484 0.5Z" fill="white"/>
<path d="M9.40484 5.0152C6.77293 5.0152 4.63907 7.14906 4.63907 9.78097C4.63907 12.4129 6.77293 14.5468 9.40484 14.5468C12.0368 14.5468 14.1706 12.4129 14.1706 9.78097C14.1706 7.14906 12.0368 5.0152 9.40484 5.0152ZM9.40484 12.8746C7.69639 12.8746 6.3112 11.4894 6.3112 9.78097C6.3112 8.07251 7.69639 6.68733 9.40484 6.68733C11.1133 6.68733 12.4985 8.07251 12.4985 9.78097C12.4985 11.4894 11.1133 12.8746 9.40484 12.8746Z" fill="white"/>
<path d="M14.3593 5.94021C14.9745 5.94021 15.4731 5.44158 15.4731 4.8265C15.4731 4.21138 14.9745 3.71277 14.3593 3.71277C13.7443 3.71277 13.2456 4.21138 13.2456 4.8265C13.2456 5.44158 13.7443 5.94021 14.3593 5.94021Z" fill="white"/>
</g>
</g>
<defs>
<clipPath id="clip0_282_3495">
<rect width="18.5619" height="18.5619" fill="white" transform="translate(0.123871 0.5)"/>
</clipPath>
</defs>
</svg>
