<svg width="80" height="37" viewBox="0 0 80 37" fill="none" xmlns="http://www.w3.org/2000/svg">
<path d="M60.1695 25.292C60.1697 26.5003 60.1697 27.6599 60.1697 28.8565C59.1388 28.8565 58.1239 28.8565 57.0796 28.8565C57.0796 26.1788 57.0796 23.5213 57.0796 20.7958C57.2524 20.7958 57.4245 20.7958 57.5965 20.7958C59.7972 20.7955 61.998 20.7987 64.1986 20.7928C64.7951 20.7911 65.0772 20.533 65.1067 20.005C65.1401 19.4051 64.8407 19.1033 64.1682 19.102C61.9838 19.0978 59.7994 19.1038 57.615 19.1059C57.4408 19.106 57.2666 19.1059 57.0706 19.1059C57.0706 18.0285 57.0706 17.0036 57.0706 15.9582C57.1239 15.9418 57.1832 15.9075 57.2423 15.9077C59.5895 15.9156 61.9367 15.9243 64.2839 15.9401C64.5765 15.942 64.8718 15.964 65.1608 16.0093C67.4657 16.37 68.657 18.1109 68.253 20.4894C68.0136 21.8988 67.2261 22.8569 65.936 23.4235C65.7887 23.4882 65.6396 23.5486 65.4308 23.6364C66.5206 25.384 67.5935 27.1047 68.7077 28.8916C67.8329 28.8916 67.0017 28.8055 66.1962 28.9128C65.1196 29.0563 64.5171 28.652 64.043 27.696C63.4502 26.5004 62.6914 25.3882 62.0238 24.2286C61.8589 23.9422 61.6839 23.8084 61.336 23.8265C60.2533 23.883 60.1391 23.5633 60.1679 24.9981C60.1695 25.0798 60.1689 25.1616 60.1695 25.292Z" fill="white"/>
<path d="M47.7002 15.92C48.1343 15.855 48.1075 16.1175 48.1073 16.3727C48.1056 19.1348 48.1065 21.8969 48.1075 24.6591C48.1075 24.8388 48.1117 25.0185 48.1172 25.1982C48.1295 25.599 48.3348 25.7864 48.7367 25.7853C49.8449 25.7821 50.9532 25.7818 52.0613 25.7942C52.4141 25.7981 52.5679 25.6237 52.5944 25.2995C52.6064 25.1533 52.6017 25.0056 52.6013 24.8586C52.5938 22.0474 52.5857 19.2363 52.5778 16.4252C52.5774 16.2661 52.5778 16.1071 52.5778 15.9234C53.6642 15.9234 54.6997 15.9234 55.7607 15.9234C55.77 16.0615 55.7862 16.1888 55.7861 16.316C55.7846 19.3233 55.785 22.3306 55.7743 25.3378C55.7728 25.7612 55.736 26.187 55.6816 26.6073C55.4907 28.0813 54.8249 28.8382 53.3488 28.8872C51.2861 28.9558 49.2142 28.9147 47.153 28.7994C45.8354 28.7257 45.2257 28.042 44.9994 26.7272C44.9221 26.2781 44.8718 25.8183 44.8702 25.3631C44.8592 22.2422 44.8644 19.1213 44.8644 15.9201C45.7796 15.9201 46.7175 15.9201 47.7002 15.92Z" fill="white"/>
<path d="M76.8117 18.9121C76.8117 17.8997 76.8117 16.9364 76.8117 15.9379C77.8628 15.9379 78.8967 15.9379 79.9668 15.9379C79.9778 16.0785 79.9982 16.2191 79.9983 16.3597C79.9988 19.3665 80.0055 22.3733 79.9883 25.3799C79.985 25.9485 79.9261 26.5243 79.8203 27.083C79.6346 28.0636 79.0553 28.7552 78.0345 28.8143C76.2327 28.9187 74.4253 28.9358 72.6199 28.9583C72.1023 28.9647 71.5781 28.8946 71.0663 28.8059C70.0016 28.6212 69.445 28.0852 69.2729 27.0214C69.1639 26.3474 69.1174 25.6571 69.1121 24.9736C69.0889 21.9997 69.091 19.0256 69.0849 16.0516C69.0848 16.0206 69.0988 15.9896 69.1142 15.9253C70.1542 15.9253 71.2019 15.9253 72.2946 15.9253C72.2946 16.1086 72.2946 16.2676 72.2946 16.4265C72.2945 19.2372 72.2936 22.0478 72.2947 24.8585C72.2951 25.7531 72.338 25.7939 73.2284 25.7936C74.206 25.7932 75.1837 25.7954 76.1613 25.7907C76.7381 25.788 76.8164 25.7162 76.8172 25.1381C76.8198 23.0791 76.8142 21.0201 76.8117 18.9121Z" fill="white"/>
<path d="M30.0784 17.2883C31.5634 14.9592 33.6401 13.6534 36.3595 13.4307C38.1332 13.2855 39.8481 13.5346 41.4075 14.4469C41.9755 14.7792 42.4788 15.2229 43.0682 15.6575C42.2309 16.555 41.4681 17.3727 40.6693 18.2291C39.456 17.0821 38.0424 16.5896 36.4113 16.747C35.5062 16.8343 34.71 17.1756 34.0252 17.7689C32.5589 19.0393 32.0749 21.4201 32.9131 23.3107C33.4418 24.5033 34.3087 25.3519 35.5705 25.7433C36.7911 26.1218 38.0159 25.984 39.2779 25.6797C39.2779 26.8472 39.2779 27.9664 39.2779 29.0903C36.8457 30.0499 32.8682 28.9271 30.9272 26.7254C28.749 24.2547 28.3914 20.3816 30.0784 17.2883Z" fill="white"/>
<path d="M51.8514 10.3197C51.9571 10.3107 52.0627 10.3017 52.2407 10.3221C52.4749 10.3601 52.637 10.379 52.7986 10.3757C54.2124 10.3471 55.6261 10.2918 57.0399 10.29C58.2255 10.2885 59.4112 10.3471 60.5968 10.3831C60.6614 10.3851 60.725 10.4243 60.9216 10.4914C60.7077 10.5376 60.6363 10.5625 60.5637 10.5673C59.5289 10.6353 58.4871 10.6465 57.4606 10.7785C55.6658 11.0093 53.8631 11.2317 52.0954 11.6074C49.5811 12.1417 47.1682 13.0206 44.8479 14.1383C44.5003 14.3057 44.1668 14.4316 43.7945 14.2342C43.7945 14.2342 43.8119 14.2253 43.8032 14.1979C43.7189 14.0883 43.6527 13.9943 43.5662 13.926C42.5592 13.131 41.4133 12.6012 40.1969 12.2357C39.7343 12.0968 39.2326 12.089 38.7487 12.0215C38.7024 12.0216 38.6561 12.0218 38.5638 11.9748C37.7171 11.6654 36.9052 11.8721 36.0983 11.8749C36.068 11.875 36.0379 11.9431 36.0077 11.9795C35.9622 11.9935 35.9167 12.0074 35.8038 11.9963C35.2278 11.9377 34.7192 11.9041 34.2107 11.8706C34.2107 11.8706 34.2235 11.8671 34.2182 11.8385C33.8446 11.2149 33.438 10.6606 32.7417 10.4132C32.7417 10.4132 32.7566 10.3825 32.7493 10.3637C32.3513 10.0728 31.9606 9.80081 31.5698 9.52879C31.5698 9.52879 31.5883 9.50607 31.5772 9.48388C30.8081 9.06854 30.0872 8.5502 29.2836 8.30999C27.8909 7.89366 26.4524 7.62128 25.0219 7.34799C24.4939 7.24713 23.934 7.31431 23.3887 7.30485C23.3434 7.30735 23.298 7.30985 23.2059 7.26752C23.0697 7.19511 22.9809 7.14476 22.8912 7.14328C20.5352 7.1044 18.1939 7.22508 15.8933 7.79265C15.7746 7.82194 15.6424 7.79642 15.5165 7.79642C15.5864 7.64307 15.6618 7.57687 15.7487 7.55336C17.3891 7.1094 19.0316 6.6737 20.672 6.22967C22.5169 5.73024 24.4091 5.62318 26.3034 5.57927C27.3568 5.55485 28.413 5.62333 29.4671 5.66799C31.4587 5.75234 33.3807 6.18902 35.2552 6.85309C35.677 7.00251 36.0967 7.15766 36.5174 7.31018C36.5174 7.31018 36.5064 7.31867 36.5154 7.34633C37.0127 7.67762 37.501 7.98125 37.9893 8.28488C37.9893 8.28488 37.9758 8.3105 37.9861 8.32477C38.0302 8.34952 38.0638 8.36 38.0975 8.37048C38.0975 8.37048 38.0834 8.39975 38.0893 8.42079C38.2232 8.52091 38.3512 8.59998 38.4793 8.67905C38.4793 8.67905 38.466 8.69284 38.4758 8.71185C38.519 8.74265 38.5525 8.75444 38.5859 8.76623C38.5859 8.76623 38.5462 8.77775 38.5647 8.80626C39.2436 9.62309 40.1683 9.92904 41.1084 10.1683C41.6836 10.3147 42.2846 10.3874 42.8784 10.4264C43.778 10.4854 44.6815 10.4861 45.5833 10.5116C46.0794 10.5058 46.5755 10.4999 47.1506 10.5227C48.6975 10.525 50.1654 10.5008 51.6331 10.466C51.707 10.4643 51.7787 10.3706 51.8514 10.3197Z" fill="white"/>
<path d="M27.0009 18.9176C26.3328 18.918 25.7124 18.939 25.0941 18.9109C24.7232 18.894 24.6264 19.0145 24.6286 19.3835C24.6465 22.3102 24.6428 25.2371 24.6448 28.1638C24.6454 28.9092 24.6438 28.9091 23.8953 28.9081C23.1616 28.9071 22.427 28.8833 21.6946 28.9138C21.2659 28.9317 21.1324 28.7942 21.1348 28.3604C21.1513 25.3846 21.1437 22.4087 21.1438 19.4329C21.1439 19.2873 21.1438 19.1418 21.1438 18.9131C20.4374 18.9131 19.7601 18.9125 19.0827 18.9132C17.8147 18.9144 17.8139 18.9147 17.8094 17.6363C17.8074 17.0497 17.8091 16.4632 17.8091 15.8257C18.0214 15.8142 18.1945 15.7967 18.3676 15.7967C21.4002 15.7956 24.4328 15.806 27.4652 15.7877C27.9383 15.7848 28.0965 15.9279 28.0705 16.4002C28.0346 17.0522 28.0268 17.71 28.0711 18.361C28.1036 18.8387 27.9193 18.9739 27.4893 18.9208C27.3448 18.9029 27.1962 18.9177 27.0009 18.9176Z" fill="white"/>
<path d="M37.3926 36.3553C37.2484 36.3571 37.144 36.3571 36.9173 36.3571C37.0934 36.2447 37.1636 36.1863 37.2439 36.1506C39.2443 35.2605 40.4144 33.6811 40.5394 31.5393C40.6855 29.0374 40.5736 26.5204 40.5736 23.9665C39.1425 23.9665 37.6998 23.9665 36.221 23.9665C36.221 22.9548 36.221 21.9855 36.221 20.9869C38.6456 20.9869 41.0811 20.9869 43.5742 20.9869C43.5742 21.4544 43.5744 21.9217 43.5742 22.389C43.5731 24.6434 43.533 26.8986 43.5796 29.152C43.6569 32.891 41.32 35.8852 37.3926 36.3553Z" fill="white"/>
<path d="M10.5688 15.7817C12.345 15.7825 14.0725 15.7919 15.7997 15.7773C16.1922 15.774 16.3669 15.8798 16.33 16.3032C16.296 16.6923 16.3114 17.0877 16.3312 17.479C16.3476 17.8022 16.2123 17.9137 15.9015 17.9094C14.8751 17.8953 13.8483 17.9101 12.8222 17.8871C12.0349 17.8695 11.5737 17.9885 11.5297 18.8776C11.5244 18.9842 11.3104 19.1667 11.1913 19.1682C9.51312 19.1898 7.83462 19.1839 6.15622 19.1908C5.8768 19.1919 5.80697 19.0509 5.78431 18.7965C5.72748 18.1587 5.49031 17.9263 4.84959 17.9149C3.77441 17.8956 2.69832 17.8881 1.62343 17.9124C1.18518 17.9223 1.04336 17.7677 1.08127 17.3433C1.11313 16.9867 1.11329 16.6223 1.0793 16.266C1.04132 15.8679 1.19173 15.7703 1.57363 15.7722C4.55566 15.787 7.53778 15.7811 10.5688 15.7817Z" fill="white"/>
<path d="M37.0406 6.09546C35.6042 3.97703 36.5759 1.22289 38.9037 0.724707C40.5183 0.379166 42.0072 1.14856 42.6066 2.63818C43.2196 4.16162 42.6804 6.06305 41.4043 6.87822C40.0333 7.754 38.3269 7.50821 37.1907 6.27096C37.1466 6.22288 37.1054 6.17205 37.0406 6.09546Z" fill="white"/>
<path d="M36.0984 33.219C36.0984 33.219 36.0686 33.2445 36.0102 33.2419C35.7998 33.2901 35.6468 33.3381 35.496 33.3922C34.2489 33.8391 33.0166 34.3346 31.7506 34.7183C30.8738 34.9842 29.9551 35.1249 29.047 35.2702C27.837 35.4638 26.6193 35.6098 25.4035 35.7646C25.3569 35.7705 25.295 35.656 25.2403 35.5976C25.66 35.4431 26.0797 35.2885 26.5679 35.1206C27.7715 34.8595 28.7727 34.3174 29.7339 33.6882C29.7435 33.6819 29.7412 33.6575 29.7445 33.6415C29.7445 33.6415 29.7662 33.6151 29.8207 33.6162C30.3113 33.3146 30.7475 33.0119 31.1836 32.7092C31.1836 32.7092 31.1975 32.7336 31.2239 32.7304C31.499 32.5065 31.7475 32.2859 31.9961 32.0653C31.9961 32.0653 31.9938 32.0587 32.0268 32.0572C32.0961 32.0139 32.1325 31.9721 32.1689 31.9302C32.1689 31.9302 32.1725 31.9423 32.2003 31.9371C32.3782 31.7783 32.5284 31.6247 32.6786 31.4712C32.6786 31.4712 32.6774 31.4697 32.7088 31.4668C32.7861 31.4037 32.832 31.3434 32.878 31.2832C32.878 31.2832 32.8758 31.2756 32.9094 31.2727C32.9736 31.2247 33.0043 31.1794 33.0349 31.1342C33.0349 31.1342 33.0408 31.1457 33.0681 31.1437C33.1528 31.0569 33.2102 30.9721 33.2676 30.8873C33.2676 30.8873 33.2647 30.8814 33.2978 30.8787C33.3579 30.8298 33.3848 30.7837 33.4118 30.7376C33.421 30.7537 33.4302 30.7699 33.4577 30.763C33.5025 30.688 33.529 30.6361 33.5556 30.5841C33.5556 30.5841 33.5579 30.5868 33.5916 30.5808C33.847 30.5463 34.0781 30.4631 34.2888 30.4993C35.0175 30.6247 35.7261 30.9168 36.4867 30.7194C36.5938 30.7193 36.7008 30.7192 36.8624 30.7636C37.4889 30.7965 38.0615 30.7678 38.6328 30.7845C38.7851 30.789 38.9333 30.9326 39.0834 31.0123C39.0834 31.0123 39.0703 30.997 39.0388 31.0055C38.9238 31.139 38.8402 31.264 38.7567 31.3889C38.7567 31.3889 38.7475 31.3761 38.7219 31.3795C38.643 31.4621 38.5898 31.5412 38.5366 31.6203C38.5366 31.6203 38.5252 31.6486 38.4787 31.6544C38.3516 31.7397 38.271 31.8193 38.1904 31.8988C38.1904 31.8988 38.1833 31.9012 38.152 31.8987C38.0153 31.9984 37.9099 32.1006 37.8045 32.2028C37.8045 32.2028 37.7796 32.2058 37.7633 32.2003C37.7255 32.2236 37.7041 32.2524 37.6827 32.2812C37.6827 32.2812 37.6815 32.2712 37.6504 32.2696C37.4419 32.3995 37.2644 32.5309 37.0868 32.6624C37.0868 32.6624 37.0854 32.6531 37.0525 32.655C36.7126 32.8443 36.4055 33.0317 36.0984 33.219Z" fill="white"/>
<path d="M21.5196 9.52414C21.5956 9.523 21.6716 9.52186 21.7986 9.5666C22.278 9.66997 22.7054 9.73793 23.1352 9.78314C25.0667 9.98632 26.9252 10.4482 28.6769 11.3102C29.0629 11.5001 29.4702 11.6465 29.8676 11.813C29.8676 11.813 29.8478 11.8448 29.8644 11.8599C29.9402 11.8909 29.9993 11.9067 30.0584 11.9225C30.0584 11.9225 30.0457 11.9318 30.056 11.958C30.1404 12.0773 30.2143 12.1704 30.3222 12.306C30.1675 12.306 30.071 12.3244 29.9843 12.3031C29.3118 12.1381 28.6471 11.9346 27.9682 11.8049C27.4277 11.7017 26.8708 11.6856 26.3212 11.6308C26.2441 11.6255 26.1671 11.6203 26.0403 11.5661C25.3732 11.4301 24.7578 11.3223 24.1378 11.2627C23.6637 11.2171 23.1838 11.2326 22.7065 11.2209C22.6597 11.2223 22.6128 11.2238 22.5169 11.1787C21.8767 11.077 21.2862 10.9843 20.6943 10.9742C19.315 10.9506 17.9344 10.9461 16.5554 10.9776C16.0592 10.9889 15.5658 11.1253 15.0712 11.2045C14.9961 11.2184 14.921 11.2323 14.7759 11.218C13.3952 11.3475 12.0843 11.5045 10.7737 11.6637C10.5667 11.6888 10.3608 11.7237 10.1544 11.7541C10.1454 11.7119 10.1363 11.6698 10.1273 11.6276C10.1909 11.5948 10.2512 11.5508 10.3186 11.5306C11.8058 11.0846 13.2814 10.591 14.7862 10.2157C15.7334 9.97949 16.7259 9.92908 17.6956 9.77921C18.0627 9.72247 18.4228 9.62051 18.7861 9.53916C18.8921 9.52879 18.9982 9.51842 19.1768 9.53768C20.0061 9.55291 20.7628 9.53852 21.5196 9.52414Z" fill="white"/>
<path d="M11.634 22.6378C11.634 23.7285 11.634 23.7302 10.5794 23.7315C9.13155 23.7333 7.68356 23.7227 6.23586 23.7392C5.87194 23.7434 5.75341 23.6274 5.76881 23.2607C5.7955 22.6256 5.78503 21.9881 5.76587 21.3524C5.75699 21.0575 5.85421 20.9495 6.15294 20.948C7.79506 20.9398 9.43715 20.9199 11.0791 20.8959C11.4777 20.8901 11.68 21.0225 11.6402 21.4641C11.6067 21.8363 11.6337 22.2139 11.634 22.6378Z" fill="white"/>
<path d="M57.8103 7.06984C59.4668 7.38543 61.0502 7.80191 62.5786 8.40813C56.5032 7.10697 50.3825 6.91947 44.221 7.5382C48.7091 6.51936 53.2198 6.21894 57.8103 7.06984Z" fill="white"/>
<path d="M0.132819 24.5141C0.0714527 23.9203 0.0350449 23.3405 0.0358376 22.7607C0.0359338 22.6898 0.233439 22.5618 0.34291 22.5579C0.928034 22.5372 1.51435 22.5533 2.10005 22.5441C2.35615 22.5402 2.43836 22.6537 2.43692 22.8993C2.42927 24.2049 2.4253 25.5106 2.43527 26.8161C2.43775 27.1407 2.30476 27.262 1.99705 27.2367C1.88392 27.2274 1.7679 27.2242 1.65569 27.2382C1.29963 27.2827 1.16864 27.1529 1.18012 26.7755C1.20687 25.896 1.18865 25.0151 1.16305 24.1068C1.02476 24.7584 0.509755 24.4219 0.132819 24.5141Z" fill="white"/>
<path d="M16.2474 23.92C16.2434 24.8872 16.2157 25.8176 16.2488 26.7459C16.2687 27.3069 15.9198 27.2158 15.5793 27.2423C15.188 27.2728 15.0393 27.1544 15.0426 26.7326C15.0523 25.4947 15.0172 24.2564 14.9977 23.0184C14.993 22.7164 15.0686 22.5221 15.4368 22.5383C15.9561 22.5612 16.4782 22.5615 16.9973 22.5356C17.3535 22.5178 17.4523 22.6658 17.431 22.9939C17.411 23.3024 17.4341 23.6134 17.4289 23.9232C17.4242 24.2001 17.5287 24.5359 17.0308 24.5091C16.6512 24.4886 16.2401 24.5791 16.3348 23.9687C16.3412 23.9273 16.3105 23.8801 16.297 23.8356C16.2811 23.8512 16.2652 23.8668 16.2474 23.92Z" fill="white"/>
<path d="M12.6476 25.3874C12.6473 24.5585 12.6563 23.7783 12.6422 22.9986C12.6363 22.6705 12.7412 22.5277 13.0894 22.5353C14.428 22.5647 14.1624 22.3739 14.1784 23.5974C14.192 24.6402 14.1755 25.6834 14.1979 26.7258C14.206 27.1027 14.0889 27.2513 13.6993 27.2413C12.4842 27.2099 12.6507 27.3742 12.6463 26.2184C12.6453 25.9577 12.6471 25.697 12.6476 25.3874Z" fill="white"/>
<path d="M4.70449 24.4061C4.70558 25.2378 4.69792 26.0207 4.712 26.8031C4.71768 27.1183 4.60044 27.2429 4.28398 27.2355C3.12101 27.2086 3.26007 27.385 3.25978 26.2365C3.25952 25.2093 3.27381 24.1815 3.24401 23.155C3.23097 22.7056 3.33472 22.5057 3.83129 22.5284C4.86657 22.5758 4.67837 22.4226 4.70272 23.4276C4.71022 23.7373 4.70427 24.0472 4.70449 24.4061Z" fill="white"/>
<path d="M65.7813 33.7766C65.6462 33.7949 65.5484 33.8012 65.4512 33.7966C65.4059 33.7944 65.3616 33.7709 65.2706 33.7428C65.2706 33.0617 65.2706 32.3727 65.2706 31.5421C64.9193 32.0917 64.6463 32.5188 64.313 33.0404C64.0204 32.5682 63.781 32.1817 63.5415 31.7953C63.5083 31.8033 63.475 31.8113 63.4418 31.8193C63.4418 32.4715 63.4418 33.1238 63.4418 33.7946C63.2209 33.7946 63.0621 33.7946 62.8681 33.7946C62.8681 32.7016 62.8681 31.6149 62.8681 30.5044C63.2082 30.3499 63.4389 30.4746 63.6191 30.8238C63.8278 31.2283 64.0763 31.612 64.3434 32.0658C64.5753 31.6633 64.8105 31.3148 64.9836 30.9376C65.1573 30.5591 65.3837 30.3672 65.8189 30.5168C65.8189 31.5895 65.8189 32.6748 65.7813 33.7766Z" fill="white"/>
<path d="M36.4996 7.28288C36.0967 7.15766 35.677 7.00251 35.2552 6.85309C33.3807 6.18902 31.4587 5.75234 29.4671 5.66799C28.413 5.62333 27.3568 5.55485 26.3034 5.57927C24.4091 5.62318 22.5169 5.73024 20.672 6.22967C19.0316 6.6737 17.3891 7.1094 15.7487 7.55336C15.6618 7.57687 15.5864 7.64307 15.5165 7.79642C15.6424 7.79642 15.7746 7.82194 15.8933 7.79265C18.1939 7.22508 20.5352 7.1044 22.8912 7.14328C22.9809 7.14476 23.0697 7.19511 23.1732 7.25693C21.4826 7.37075 19.766 7.35314 18.0765 7.55911C16.5906 7.74027 15.1351 8.17192 13.666 8.49213C13.4954 8.52931 13.3237 8.56132 13.1109 8.51372C13.3689 8.39579 13.6242 8.27145 13.8853 8.16088C19.078 5.96196 24.47 4.99864 30.1001 5.57074C32.3116 5.79545 34.4801 6.21588 36.4996 7.28288ZM14.8827 7.87747C14.8499 7.91613 14.8172 7.95479 14.7845 7.99345C14.843 7.99611 14.9015 7.99878 14.9599 8.00144C14.9516 7.95462 14.9432 7.90779 14.8827 7.87747ZM14.4664 8.09158C14.4743 8.07777 14.4822 8.06396 14.4901 8.05015C14.4771 8.05609 14.4642 8.06201 14.4664 8.09158Z" fill="white"/>
<path d="M43.8092 14.2637C44.1668 14.4316 44.5003 14.3057 44.8479 14.1383C47.1682 13.0206 49.5811 12.1417 52.0954 11.6074C53.8631 11.2317 55.6658 11.0093 57.4606 10.7785C58.4871 10.6465 59.5289 10.6353 60.5637 10.5673C60.6363 10.5625 60.7077 10.5376 60.9216 10.4914C60.725 10.4243 60.6614 10.3851 60.5968 10.3831C59.4112 10.3471 58.2255 10.2885 57.0399 10.29C55.6261 10.2918 54.2124 10.3471 52.7986 10.3757C52.637 10.379 52.4749 10.3601 52.2802 10.3288C55.9732 10.1643 59.6998 9.99953 63.4086 10.5744C63.4663 10.5834 63.5236 10.5956 63.5675 10.507C61.0602 10.6839 58.5447 10.7843 56.0476 11.0553C52.0697 11.487 48.2726 12.6125 44.6691 14.3696C44.3622 14.5192 44.0754 14.6612 43.8092 14.2637Z" fill="white"/>
<path d="M48.8633 32.2724C48.9858 32.1686 49.1021 32.0632 49.2296 32.0471C49.4682 32.0168 49.7133 32.0384 50.0161 32.0384C50.0161 32.326 50.0161 32.598 50.0161 32.87C50.0161 33.1302 50.0161 33.3905 50.0161 33.6417C49.1049 34.0603 48.0268 33.9181 47.5136 33.3231C47.0456 32.7806 47.0091 31.7884 47.4344 31.1701C47.8809 30.5208 48.902 30.2779 49.8716 30.5889C49.8716 30.7772 49.8716 30.9641 49.8716 31.1074C49.4539 31.0831 49.0624 31.0007 48.6887 31.0511C47.9538 31.1503 47.5917 31.7536 47.7589 32.4901C47.8991 33.108 48.6341 33.5412 49.2543 33.2985C49.409 33.238 49.4483 32.881 49.5082 32.7377C49.2853 32.427 48.8424 32.8055 48.8633 32.2724Z" fill="white"/>
<path d="M2.43499 19.8981C2.43584 20.4036 2.42647 20.8612 2.43769 21.3183C2.44398 21.5746 2.33875 21.6644 2.09008 21.6597C1.52017 21.6487 0.949719 21.6456 0.379919 21.6584C0.109526 21.6645 -0.0174935 21.5728 0.00978341 21.2924C0.020807 21.1792 0.0254919 21.062 0.00951398 20.9499C-0.0456249 20.5633 0.142099 20.4583 0.489723 20.4976C0.663823 20.5172 0.841955 20.501 1.10825 20.501C1.10825 20.1076 1.13219 19.7563 1.102 19.4097C1.06674 19.0049 1.1642 18.8077 1.62386 18.8258C2.61504 18.865 2.42093 18.7753 2.43499 19.8981Z" fill="white"/>
<path d="M14.9872 20.1886C14.9868 20.0096 14.9864 19.8793 14.9858 19.7489C14.9816 18.7646 14.9811 18.7726 15.9445 18.8238C16.2099 18.8379 16.3329 18.9291 16.3243 19.2015C16.3146 19.5108 16.3356 19.8214 16.3178 20.13C16.2991 20.4528 16.3915 20.5965 16.7514 20.5904C17.4546 20.5783 17.5197 20.6649 17.4107 21.3724C17.3941 21.48 17.2284 21.6418 17.1262 21.646C16.5099 21.6715 15.8914 21.6715 15.2751 21.645C15.1762 21.6408 15.0128 21.4672 15.0029 21.3604C14.9683 20.9888 14.9881 20.6121 14.9872 20.1886Z" fill="white"/>
<path d="M12.651 21.42C12.6467 20.6911 12.6557 20.0065 12.6391 19.3225C12.6309 18.9843 12.7152 18.8175 13.0998 18.8237C14.3971 18.8444 14.1477 18.7154 14.1783 19.8736C14.1907 20.3459 14.1705 20.819 14.186 21.291C14.1951 21.5676 14.0891 21.6738 13.8168 21.6595C13.5414 21.645 13.2627 21.6749 12.9893 21.6476C12.8725 21.636 12.7652 21.5284 12.651 21.42Z" fill="white"/>
<path d="M3.25172 21.0557C3.25138 20.4368 3.2624 19.8646 3.24641 19.2931C3.23732 18.9683 3.33355 18.8271 3.68741 18.8212C4.69782 18.8044 4.69888 18.7899 4.70458 19.814C4.70739 20.3206 4.72269 20.8283 4.69023 21.3328C4.68281 21.4482 4.51107 21.6334 4.39873 21.6465C4.04728 21.6875 3.68807 21.6616 3.28061 21.6616C3.26968 21.4498 3.26072 21.2763 3.25172 21.0557Z" fill="white"/>
<path d="M18.743 9.5309C18.4228 9.62051 18.0627 9.72247 17.6956 9.77921C16.7259 9.92908 15.7334 9.97949 14.7862 10.2157C13.2814 10.591 11.8058 11.0846 10.3186 11.5306C10.2512 11.5508 10.1909 11.5948 10.1273 11.6276C10.1363 11.6698 10.1454 11.7119 10.1544 11.7541C10.3608 11.7237 10.5667 11.6888 10.7737 11.6637C12.0843 11.5045 13.3952 11.3475 14.7377 11.2126C12.2188 11.467 9.71012 11.8961 7.30017 12.8056C7.05894 12.8967 6.78908 12.9114 6.61633 12.9452C7.48271 12.5621 8.42022 12.1076 9.38783 11.7308C10.3865 11.342 11.4041 10.9929 12.4326 10.6926C13.4454 10.3968 14.4739 10.1388 15.5108 9.94733C16.5641 9.75286 17.6361 9.66 18.743 9.5309ZM9.83803 11.9071C9.8503 11.8967 9.86457 11.8879 9.87427 11.8754C9.88363 11.8634 9.88827 11.8477 9.89498 11.8337C9.7611 11.8337 9.62722 11.8337 9.49333 11.8337C9.49551 11.8661 9.49768 11.8984 9.49986 11.9308C9.59321 11.9308 9.68656 11.9308 9.83803 11.9071Z" fill="white"/>
<path d="M56.0039 32.7736C55.818 32.32 55.6455 31.9043 55.4431 31.5037C55.2748 31.1707 55.0713 30.8555 54.8662 30.5029C55.2347 30.3634 55.5086 30.3958 55.7025 30.7812C55.8828 31.1396 56.1001 31.4793 56.3289 31.8752C56.5526 31.5111 56.7857 31.1982 56.9469 30.8517C57.1265 30.4656 57.3881 30.3777 57.8006 30.5034C57.2776 31.5505 56.2578 32.4114 56.6507 33.7939C56.3918 33.7939 56.223 33.7939 56.0043 33.7939C56.0043 33.4661 56.0043 33.142 56.0039 32.7736Z" fill="white"/>
<path d="M25.2132 35.5848C25.2951 35.656 25.3569 35.7705 25.4035 35.7646C26.6193 35.6098 27.837 35.4638 29.047 35.2702C29.9551 35.1249 30.8738 34.9842 31.7506 34.7183C33.0166 34.3346 34.2489 33.8391 35.496 33.3922C35.6468 33.3381 35.7998 33.2901 35.9906 33.2426C34.4623 34.1134 32.7762 34.6672 31.0311 34.9965C29.1444 35.3526 27.2378 35.6049 25.3365 35.8791C25.0056 35.9268 24.6581 35.8511 24.3182 35.8504C24.246 35.8503 24.1737 35.9286 24.0956 35.9331C24.4591 35.8127 24.8226 35.6923 25.2132 35.5848Z" fill="white"/>
<path d="M23.4284 7.31641C23.934 7.31431 24.4939 7.24713 25.0219 7.34799C26.4524 7.62128 27.8909 7.89366 29.2836 8.30999C30.0872 8.5502 30.808 9.06854 31.5701 9.4967C29.0825 8.01905 26.3186 7.51329 23.4284 7.31641Z" fill="white"/>
<path d="M29.8495 11.7865C29.4702 11.6465 29.0629 11.5001 28.6769 11.3102C26.9252 10.4482 25.0667 9.98632 23.1352 9.78314C22.7054 9.73793 22.2781 9.66997 21.8346 9.57942C24.6572 9.67678 27.3531 10.3223 29.8495 11.7865Z" fill="white"/>
<path d="M15.1148 11.2132C15.5659 11.1253 16.0592 10.9889 16.5554 10.9776C17.9344 10.9461 19.315 10.9506 20.6943 10.9742C21.2862 10.9843 21.8767 11.077 22.4848 11.1637C20.3454 11.1866 18.1891 11.1759 16.0329 11.1718C15.7414 11.1713 15.4498 11.2044 15.1148 11.2132Z" fill="white"/>
<path d="M45.5404 10.5005C44.6815 10.4861 43.778 10.4854 42.8784 10.4264C42.2846 10.3874 41.6836 10.3147 41.1084 10.1683C40.1683 9.92904 39.2436 9.62309 38.5843 8.79954C40.2159 10.1732 42.2445 10.2373 44.2302 10.4378C44.6501 10.4802 45.0749 10.4735 45.5404 10.5005Z" fill="white"/>
<path d="M26.3574 11.6441C26.8708 11.6856 27.4277 11.7017 27.9682 11.8049C28.6471 11.9346 29.3118 12.1381 29.9843 12.3031C30.071 12.3244 30.1675 12.306 30.3222 12.306C30.2143 12.1704 30.1404 12.0773 30.0596 11.951C30.4882 12.1721 30.9237 12.4265 31.3591 12.6808C31.3425 12.6931 31.3258 12.7054 31.3092 12.7177C29.6706 12.3643 28.0321 12.0109 26.3574 11.6441Z" fill="white"/>
<path d="M38.7828 12.0355C39.2325 12.089 39.7343 12.0968 40.1969 12.2357C41.4133 12.6012 42.5592 13.131 43.5662 13.926C43.6527 13.9943 43.7188 14.0883 43.7967 14.2052C42.3061 13.126 40.6665 12.3476 38.7828 12.0355Z" fill="white"/>
<path d="M51.8066 10.3109C51.7786 10.3706 51.707 10.4643 51.6331 10.466C50.1654 10.5008 48.6975 10.525 47.1962 10.5299C48.6957 10.4397 50.2288 10.3709 51.8066 10.3109Z" fill="white"/>
<path d="M29.7099 33.6461C29.7412 33.6575 29.7435 33.6819 29.7339 33.6882C28.7727 34.3174 27.7715 34.8595 26.5987 35.1081C27.599 34.623 28.6371 34.1369 29.7099 33.6461Z" fill="white"/>
<path d="M22.7465 11.2336C23.1839 11.2326 23.6637 11.2171 24.1378 11.2627C24.7578 11.3223 25.3732 11.4301 26.007 11.5461C24.9444 11.4655 23.8654 11.3559 22.7465 11.2336Z" fill="white"/>
<path d="M36.0508 11.9881C36.0379 11.9431 36.068 11.875 36.0983 11.8749C36.9052 11.8721 37.7171 11.6654 38.532 11.9603C37.7288 11.9942 36.9114 11.9955 36.0508 11.9881Z" fill="white"/>
<path d="M36.448 30.7076C35.7262 30.9168 35.0175 30.6247 34.2888 30.4993C34.0781 30.4631 33.8471 30.5463 33.5903 30.5797C33.6758 30.2958 33.8629 30.25 34.1728 30.3159C34.9118 30.473 35.6629 30.5728 36.448 30.7076Z" fill="white"/>
<path d="M39.1109 30.9952C38.9333 30.9326 38.7851 30.789 38.6328 30.7845C38.0615 30.7678 37.4889 30.7965 36.9008 30.7758C37.6832 30.7075 38.4816 30.6715 39.3353 30.633C39.2575 30.7695 39.198 30.8738 39.1109 30.9952Z" fill="white"/>
<path d="M32.7565 10.4417C33.438 10.6606 33.8446 11.2149 34.2168 11.845C33.7375 11.4101 33.2544 10.9401 32.7565 10.4417Z" fill="white"/>
<path d="M21.4804 9.51284C20.7629 9.53852 20.0061 9.55291 19.2163 9.54515C19.9359 9.51584 20.6886 9.50869 21.4804 9.51284Z" fill="white"/>
<path d="M37.9743 8.25653C37.5009 7.98125 37.0126 7.67762 36.5177 7.33976C36.9938 7.61308 37.4766 7.92064 37.9743 8.25653Z" fill="white"/>
<path d="M34.2215 11.9008C34.7192 11.9041 35.2278 11.9377 35.7678 11.9923C35.5181 12.0671 35.226 12.0894 34.9584 12.1826C34.6289 12.2973 34.4074 12.2097 34.2215 11.9008Z" fill="white"/>
<path d="M31.1504 32.7177C30.7475 33.0119 30.3114 33.3147 29.8377 33.615C30.2392 33.3172 30.6782 33.0217 31.1504 32.7177Z" fill="white"/>
<path d="M31.5868 9.55567C31.9605 9.80081 32.3513 10.0728 32.7438 10.3798C32.365 10.1374 31.9844 9.85998 31.5868 9.55567Z" fill="white"/>
<path d="M36.1329 33.2162C36.4055 33.0317 36.7126 32.8443 37.0565 32.6576C36.7846 32.8434 36.4759 33.0284 36.1329 33.2162Z" fill="white"/>
<path d="M31.9647 32.0755C31.7476 32.2859 31.499 32.5065 31.2149 32.7197C31.4307 32.5034 31.682 32.2946 31.9647 32.0755Z" fill="white"/>
<path d="M37.1206 32.6584C37.2643 32.5309 37.4419 32.3995 37.6549 32.2718C37.5118 32.4018 37.3331 32.5281 37.1206 32.6584Z" fill="white"/>
<path d="M32.6482 31.4816C32.5284 31.6247 32.3782 31.7783 32.194 31.9362C32.3126 31.791 32.4652 31.6415 32.6482 31.4816Z" fill="white"/>
<path d="M38.4657 8.65085C38.3512 8.59998 38.2232 8.52091 38.0969 8.40585C38.2165 8.45411 38.3343 8.53838 38.4657 8.65085Z" fill="white"/>
<path d="M38.7866 31.378C38.8403 31.264 38.9238 31.139 39.0427 31.0149C38.9908 31.1328 38.9036 31.25 38.7866 31.378Z" fill="white"/>
<path d="M38.2186 31.8919C38.2711 31.8193 38.3517 31.7397 38.4638 31.6571C38.4124 31.731 38.3295 31.808 38.2186 31.8919Z" fill="white"/>
<path d="M37.834 32.1922C37.9098 32.1006 38.0152 31.9984 38.1544 31.8959C38.08 31.9909 37.9718 32.0862 37.834 32.1922Z" fill="white"/>
<path d="M33.2394 30.8973C33.2103 30.9721 33.1529 31.0569 33.0621 31.1417C33.0895 31.0635 33.1503 30.9855 33.2394 30.8973Z" fill="white"/>
<path d="M38.5621 31.6094C38.5898 31.5412 38.643 31.4621 38.7282 31.3842C38.7026 31.4565 38.6451 31.5275 38.5621 31.6094Z" fill="white"/>
<path d="M32.8507 31.2915C32.8321 31.3434 32.7861 31.4037 32.7095 31.4674C32.7271 31.4138 32.7752 31.3568 32.8507 31.2915Z" fill="white"/>
<path d="M33.0089 31.143C33.0043 31.1794 32.9736 31.2247 32.913 31.2743C32.9163 31.2365 32.9496 31.1942 33.0089 31.143Z" fill="white"/>
<path d="M30.0427 11.8976C29.9993 11.9067 29.9402 11.8909 29.873 11.8432C29.9189 11.8318 29.973 11.8523 30.0427 11.8976Z" fill="white"/>
<path d="M33.53 30.5938C33.529 30.6361 33.5025 30.688 33.4446 30.7385C33.4436 30.6926 33.474 30.648 33.53 30.5938Z" fill="white"/>
<path d="M32.1412 31.9363C32.1325 31.9721 32.0961 32.0139 32.0298 32.059C32.0378 32.0222 32.0757 31.9823 32.1412 31.9363Z" fill="white"/>
<path d="M33.3875 30.7483C33.3848 30.7837 33.3579 30.8298 33.3007 30.8802C33.3014 30.8426 33.3323 30.8008 33.3875 30.7483Z" fill="white"/>
<path d="M31.4553 12.8789C31.4535 12.8787 31.4572 12.8791 31.4553 12.8789V12.8789Z" fill="white"/>
<path d="M37.7083 32.2768C37.7041 32.2524 37.7256 32.2236 37.7754 32.1974C37.7805 32.2241 37.7573 32.2483 37.7083 32.2768Z" fill="white"/>
<path d="M38.0863 8.34764C38.0638 8.36 38.0301 8.34952 37.9908 8.31107C38.0151 8.29701 38.0451 8.3109 38.0863 8.34764Z" fill="white"/>
<path d="M38.5751 8.74286C38.5525 8.75444 38.519 8.74265 38.4795 8.70303C38.5037 8.68997 38.534 8.70473 38.5751 8.74286Z" fill="white"/>
<path d="M14.9087 7.86922C14.9432 7.90779 14.9516 7.95462 14.9599 8.00144C14.9015 7.99878 14.843 7.99611 14.7845 7.99345C14.8172 7.95479 14.85 7.91613 14.9087 7.86922Z" fill="white"/>
<path d="M14.4587 8.07976C14.4641 8.06202 14.4771 8.05609 14.4901 8.05015C14.4822 8.06396 14.4743 8.07777 14.4587 8.07976Z" fill="white"/>
<path d="M9.80904 11.919C9.68663 11.9308 9.59321 11.9308 9.49986 11.9308C9.49768 11.8984 9.49551 11.8661 9.49333 11.8337C9.62722 11.8337 9.7611 11.8337 9.89498 11.8337C9.88827 11.8477 9.88363 11.8634 9.87427 11.8754C9.86457 11.8879 9.85037 11.8967 9.80904 11.919Z" fill="white"/>
<path d="M30.5761 12.3912C30.5721 12.3932 30.5802 12.3891 30.5761 12.3912V12.3912Z" fill="white"/>
</svg>
